<svg width="24" height="24" fill="none" xmlns="http://www.w3.org/2000/svg"><path d="M.54.195C.242.332.12.565.12 1c0 .41.114.648.38.794.105.058.35.069 1.94.086l1.82.02.434 2.16 1.304 6.504c.842 4.208.875 4.355 1.033 4.68a2.902 2.902 0 0 0 1.873 1.557c.3.077.465.079 5.636.079s5.336-.002 5.636-.079a2.927 2.927 0 0 0 2.079-2.141c.05-.216 1.243-6.451 1.603-8.38.105-.559.012-.843-.34-1.04l-.178-.1-8.3-.02-8.3-.02-.445-2.209C6.051 1.676 5.829.63 5.802.566a.784.784 0 0 0-.411-.384C5.263.128 4.936.12 2.971.121.853.122.689.127.54.195M21.892 6.91c.027.047-1.364 7.289-1.438 7.488-.09.242-.333.494-.585.607l-.209.095H9.42l-.209-.095a1.191 1.191 0 0 1-.585-.607c-.064-.17-1.506-7.301-1.506-7.447 0-.068.353-.071 7.378-.071 4.057 0 7.385.014 7.394.03M8.477 19.073c-.859.224-1.484 1.053-1.475 1.955.01.957.738 1.793 1.688 1.939.653.1 1.244-.094 1.713-.564.324-.324.498-.66.564-1.093A1.995 1.995 0 0 0 9 19.005c-.143 0-.378.031-.523.068m11 0c-.859.224-1.484 1.053-1.475 1.955.01.957.738 1.793 1.688 1.939.653.1 1.244-.094 1.713-.564.324-.324.498-.66.564-1.093A1.995 1.995 0 0 0 20 19.005c-.143 0-.378.031-.523.068" fill="#141414" fill-rule="evenodd"/></svg>