<svg width="28" height="28" fill="none" xmlns="http://www.w3.org/2000/svg"><path d="M8.353 5.183c-2.661.107-3.964.346-4.988.917-.36.2-.81.642-1.028 1.012-.215.363-.445 1.068-.534 1.638-.131.839-.181 2.726-.156 5.882.014 1.748.046 3.197.078 3.498.267 2.55 1.089 3.547 3.322 4.031 1.338.29 2.906.351 8.976.352 4.768 0 6.043-.031 7.56-.186 1.764-.18 2.791-.544 3.479-1.232.396-.396.616-.774.811-1.394.281-.899.354-2.131.353-5.973-.001-4.197-.108-5.294-.624-6.376-.642-1.349-2.05-1.954-4.957-2.129-1.046-.063-10.917-.095-12.292-.04m6.359 6.413c2.047 1.227 3.721 2.246 3.721 2.264 0 .018-1.674 1.037-3.721 2.264a1705.425 1705.425 0 0 0-3.827 2.299l-.105.068V9.229l.105.068c.058.037 1.78 1.071 3.827 2.299" fill="#141414" fill-rule="evenodd"/></svg>