<svg width="16" height="16" fill="none" xmlns="http://www.w3.org/2000/svg"><path d="M7.543.028a3.84 3.84 0 0 0-1.799.735 4.696 4.696 0 0 0-.819.857c-.291.437-.509.955-.583 1.387l-.033.193H-.004l.015.073c.008.041.483 2.888 1.056 6.327.572 3.439 1.047 6.286 1.055 6.327l.016.073h11.724l.016-.073c.008-.041.483-2.888 1.055-6.327.573-3.439 1.048-6.286 1.056-6.327l.015-.073H11.691l-.032-.185c-.073-.428-.296-.963-.578-1.388-.171-.258-.717-.804-.974-.974A3.93 3.93 0 0 0 8.693.068a5.095 5.095 0 0 0-1.15-.04m.724.985a2.688 2.688 0 0 1 1.596.734c.249.235.402.434.55.713.116.217.254.593.254.69 0 .049-.079.05-2.667.05-2.588 0-2.667-.001-2.667-.05 0-.097.138-.473.254-.69.148-.279.301-.478.55-.713.43-.409.976-.664 1.566-.733.257-.03.312-.03.564-.001m-4 4.28V6.4h.986l.007-1.1.007-1.1h5.466l.007 1.1.007 1.1h.986V4.187h1.529c.841 0 1.535.006 1.542.013.011.011-1.733 10.559-1.778 10.753l-.014.06H2.988l-.014-.06A1558.87 1558.87 0 0 1 1.196 4.2c.007-.007.701-.013 1.542-.013h1.529v1.106" fill-rule="evenodd" fill="#000"/></svg>