<svg width="24" height="24" fill="none" xmlns="http://www.w3.org/2000/svg"><path d="M2.67 5.057a1.038 1.038 0 0 0-.539.454c-.151.256-.157.655-.016.942.118.24.391.448.665.508.14.031 1.447.04 4.34.031 4.02-.012 4.145-.014 4.298-.09.801-.398.746-1.547-.088-1.845-.222-.079-8.438-.079-8.66 0m-.003 6.008C2.301 11.177 2 11.599 2 12c0 .242.119.521.299.701.326.326-.563.299 9.701.299 10.267 0 9.375.028 9.702-.3.537-.537.283-1.473-.45-1.658-.115-.029-2.992-.041-9.28-.039-7.937.002-9.137.01-9.305.062m.106 5.973a1.531 1.531 0 0 0-.311.138c-.694.407-.567 1.491.208 1.767.222.079 12.438.079 12.66 0a1.009 1.009 0 0 0 .455-1.56 1.178 1.178 0 0 0-.31-.244l-.215-.119-6.18-.006c-3.399-.004-6.237.007-6.307.024" fill="#77AC63" fill-rule="evenodd"/></svg>