<svg width="20" height="20" fill="none" xmlns="http://www.w3.org/2000/svg"><path d="M12.957 6.04a.817.817 0 0 0-.289.189c-.103.098-.812 1.117-1.952 2.804a267.178 267.178 0 0 1-1.829 2.689c-.028.029-.212-.22-.737-.997-.385-.569-.743-1.079-.795-1.131-.164-.165-.282-.209-.555-.21-.212-.001-.273.013-.402.089a.806.806 0 0 0-.36.93c.046.134 2.135 3.231 2.274 3.37a.767.767 0 0 0 1.072.014c.134-.126 4.361-6.32 4.525-6.632a.764.764 0 0 0-.177-.933c-.227-.205-.472-.262-.775-.182" fill="#A1C487" fill-rule="evenodd"/></svg>