<svg width="20" height="20" viewBox="0 0 20 20" fill="none" xmlns="http://www.w3.org/2000/svg">
<rect width="20" height="20" fill="#DEDEDE"/>
<g id="Pop up" filter="url(#filter0_dddddd_0_1)">
<g clip-path="url(#clip0_0_1)">
<rect x="-263" y="-138" width="891" height="911" rx="20" fill="white"/>
<g id="Your Order" filter="url(#filter1_d_0_1)">
<path d="M-213.04 -62V-72.32L-222.32 -90H-217.52L-210.92 -76.48L-204.36 -90H-199.6L-208.8 -72.32V-62H-213.04ZM-186.652 -61.52C-189.426 -61.52 -191.852 -62.1333 -193.932 -63.36C-196.013 -64.5867 -197.639 -66.28 -198.813 -68.44C-199.986 -70.6267 -200.573 -73.1467 -200.573 -76C-200.573 -78.8533 -199.986 -81.36 -198.813 -83.52C-197.639 -85.7067 -196.013 -87.4133 -193.932 -88.64C-191.852 -89.8667 -189.426 -90.48 -186.652 -90.48C-183.879 -90.48 -181.452 -89.8667 -179.372 -88.64C-177.292 -87.4133 -175.679 -85.7067 -174.532 -83.52C-173.359 -81.36 -172.772 -78.8533 -172.772 -76C-172.772 -73.1467 -173.359 -70.6267 -174.532 -68.44C-175.679 -66.28 -177.292 -64.5867 -179.372 -63.36C-181.452 -62.1333 -183.879 -61.52 -186.652 -61.52ZM-186.652 -65.32C-184.732 -65.32 -183.066 -65.7467 -181.652 -66.6C-180.212 -67.4533 -179.092 -68.68 -178.292 -70.28C-177.492 -71.88 -177.092 -73.7867 -177.092 -76C-177.092 -78.2133 -177.492 -80.12 -178.292 -81.72C-179.092 -83.32 -180.212 -84.5467 -181.652 -85.4C-183.066 -86.2533 -184.732 -86.68 -186.652 -86.68C-188.572 -86.68 -190.252 -86.2533 -191.693 -85.4C-193.132 -84.5467 -194.252 -83.32 -195.052 -81.72C-195.826 -80.12 -196.213 -78.2133 -196.213 -76C-196.213 -73.7867 -195.826 -71.88 -195.052 -70.28C-194.252 -68.68 -193.132 -67.4533 -191.693 -66.6C-190.252 -65.7467 -188.572 -65.32 -186.652 -65.32ZM-159.169 -61.52C-161.169 -61.52 -162.982 -61.9067 -164.609 -62.68C-166.209 -63.48 -167.489 -64.6933 -168.449 -66.32C-169.382 -67.9467 -169.849 -70.0133 -169.849 -72.52V-90H-165.609V-72.48C-165.609 -70.0267 -165.022 -68.2267 -163.849 -67.08C-162.676 -65.9333 -161.089 -65.36 -159.089 -65.36C-157.116 -65.36 -155.542 -65.9333 -154.369 -67.08C-153.196 -68.2267 -152.609 -70.0267 -152.609 -72.48V-90H-148.369V-72.52C-148.369 -70.0133 -148.862 -67.9467 -149.849 -66.32C-150.809 -64.6933 -152.116 -63.48 -153.769 -62.68C-155.396 -61.9067 -157.196 -61.52 -159.169 -61.52ZM-144.53 -62V-90H-134.89C-132.677 -90 -130.864 -89.6267 -129.45 -88.88C-128.01 -88.1333 -126.944 -87.12 -126.25 -85.84C-125.557 -84.5867 -125.21 -83.1867 -125.21 -81.64C-125.21 -79.9067 -125.677 -78.3333 -126.61 -76.92C-127.517 -75.5067 -128.944 -74.4933 -130.89 -73.88L-124.93 -62H-129.85L-135.29 -73.28H-140.29V-62H-144.53ZM-140.29 -76.48H-135.13C-133.21 -76.48 -131.81 -76.9467 -130.93 -77.88C-130.024 -78.8133 -129.57 -80.0267 -129.57 -81.52C-129.57 -83.0133 -130.01 -84.2 -130.89 -85.08C-131.77 -85.9867 -133.197 -86.44 -135.17 -86.44H-140.29V-76.48ZM-100.396 -61.52C-103.17 -61.52 -105.596 -62.1333 -107.676 -63.36C-109.756 -64.5867 -111.383 -66.28 -112.556 -68.44C-113.73 -70.6267 -114.316 -73.1467 -114.316 -76C-114.316 -78.8533 -113.73 -81.36 -112.556 -83.52C-111.383 -85.7067 -109.756 -87.4133 -107.676 -88.64C-105.596 -89.8667 -103.17 -90.48 -100.396 -90.48C-97.6229 -90.48 -95.1962 -89.8667 -93.1162 -88.64C-91.0362 -87.4133 -89.4229 -85.7067 -88.2762 -83.52C-87.1029 -81.36 -86.5162 -78.8533 -86.5162 -76C-86.5162 -73.1467 -87.1029 -70.6267 -88.2762 -68.44C-89.4229 -66.28 -91.0362 -64.5867 -93.1162 -63.36C-95.1962 -62.1333 -97.6229 -61.52 -100.396 -61.52ZM-100.396 -65.32C-98.4762 -65.32 -96.8096 -65.7467 -95.3962 -66.6C-93.9562 -67.4533 -92.8362 -68.68 -92.0362 -70.28C-91.2362 -71.88 -90.8362 -73.7867 -90.8362 -76C-90.8362 -78.2133 -91.2362 -80.12 -92.0362 -81.72C-92.8362 -83.32 -93.9562 -84.5467 -95.3962 -85.4C-96.8096 -86.2533 -98.4762 -86.68 -100.396 -86.68C-102.316 -86.68 -103.996 -86.2533 -105.436 -85.4C-106.876 -84.5467 -107.996 -83.32 -108.796 -81.72C-109.57 -80.12 -109.956 -78.2133 -109.956 -76C-109.956 -73.7867 -109.57 -71.88 -108.796 -70.28C-107.996 -68.68 -106.876 -67.4533 -105.436 -66.6C-103.996 -65.7467 -102.316 -65.32 -100.396 -65.32ZM-83.3928 -62V-90H-73.7528C-71.5395 -90 -69.7262 -89.6267 -68.3128 -88.88C-66.8728 -88.1333 -65.8062 -87.12 -65.1128 -85.84C-64.4195 -84.5867 -64.0728 -83.1867 -64.0728 -81.64C-64.0728 -79.9067 -64.5395 -78.3333 -65.4728 -76.92C-66.3795 -75.5067 -67.8062 -74.4933 -69.7528 -73.88L-63.7928 -62H-68.7128L-74.1528 -73.28H-79.1528V-62H-83.3928ZM-79.1528 -76.48H-73.9928C-72.0728 -76.48 -70.6728 -76.9467 -69.7928 -77.88C-68.8862 -78.8133 -68.4328 -80.0267 -68.4328 -81.52C-68.4328 -83.0133 -68.8728 -84.2 -69.7528 -85.08C-70.6328 -85.9867 -72.0595 -86.44 -74.0328 -86.44H-79.1528V-76.48ZM-60.6569 -62V-90H-51.5769C-48.2969 -90 -45.6035 -89.4267 -43.4969 -88.28C-41.3635 -87.1333 -39.7902 -85.5067 -38.7769 -83.4C-37.7369 -81.32 -37.2169 -78.84 -37.2169 -75.96C-37.2169 -73.1067 -37.7369 -70.6267 -38.7769 -68.52C-39.7902 -66.44 -41.3635 -64.8267 -43.4969 -63.68C-45.6035 -62.56 -48.2969 -62 -51.5769 -62H-60.6569ZM-56.4169 -65.6H-51.7369C-49.2035 -65.6 -47.2035 -66.0133 -45.7369 -66.84C-44.2435 -67.6667 -43.1769 -68.8533 -42.5369 -70.4C-41.8702 -71.9467 -41.5369 -73.8 -41.5369 -75.96C-41.5369 -78.12 -41.8702 -79.9867 -42.5369 -81.56C-43.1769 -83.1333 -44.2435 -84.3333 -45.7369 -85.16C-47.2035 -86.0133 -49.2035 -86.44 -51.7369 -86.44H-56.4169V-65.6ZM-34.1319 -62V-90H-16.3319V-86.56H-29.8919V-77.84H-17.5319V-74.48H-29.8919V-65.44H-16.3319V-62H-34.1319ZM-12.8803 -62V-90H-3.24031C-1.02697 -90 0.786361 -89.6267 2.19969 -88.88C3.63969 -88.1333 4.70636 -87.12 5.39969 -85.84C6.09303 -84.5867 6.43969 -83.1867 6.43969 -81.64C6.43969 -79.9067 5.97303 -78.3333 5.0397 -76.92C4.13303 -75.5067 2.70636 -74.4933 0.759695 -73.88L6.7197 -62H1.79969L-3.64031 -73.28H-8.64031V-62H-12.8803ZM-8.64031 -76.48H-3.48031C-1.56031 -76.48 -0.160306 -76.9467 0.719694 -77.88C1.62636 -78.8133 2.07969 -80.0267 2.07969 -81.52C2.07969 -83.0133 1.63969 -84.2 0.759695 -85.08C-0.120306 -85.9867 -1.54697 -86.44 -3.52031 -86.44H-8.64031V-76.48Z" fill="#141414"/>
</g>
<g id="cards">
<g id="Product 47">
<g clip-path="url(#clip1_0_1)">
<rect id="Rectangle" x="-223" y="-14" width="257" height="308" fill="#FAF3E7"/>
<g id="Group 32">
<path id="pick" d="M12.5378 6.35115C12.7857 5.98545 13.2832 5.88998 13.6489 6.13791C14.0146 6.38584 14.11 6.88328 13.8621 7.24898L9.52319 13.6489C9.20584 14.1169 8.51623 14.1169 8.19888 13.6489L6.13791 10.6089C5.88998 10.2432 5.98545 9.74578 6.35115 9.49785C6.71684 9.24992 7.21429 9.34539 7.46222 9.71109L8.86104 11.7743L12.5378 6.35115Z" fill="#A1C487"/>
<rect id="Rectangle_2" x="0.75" y="0.75" width="18.5" height="18.5" rx="3.25" stroke="#A1C487" stroke-width="1.5"/>
</g>
</g>
</g>
</g>
</g>
</g>
<defs>
<filter id="filter0_dddddd_0_1" x="-486" y="-361" width="1337" height="1357" filterUnits="userSpaceOnUse" color-interpolation-filters="sRGB">
<feFlood flood-opacity="0" result="BackgroundImageFix"/>
<feColorMatrix in="SourceAlpha" type="matrix" values="0 0 0 0 0 0 0 0 0 0 0 0 0 0 0 0 0 0 127 0" result="hardAlpha"/>
<feOffset/>
<feGaussianBlur stdDeviation="4.38773"/>
<feColorMatrix type="matrix" values="0 0 0 0 0 0 0 0 0 0 0 0 0 0 0 0 0 0 0.012037 0"/>
<feBlend mode="normal" in2="BackgroundImageFix" result="effect1_dropShadow_0_1"/>
<feColorMatrix in="SourceAlpha" type="matrix" values="0 0 0 0 0 0 0 0 0 0 0 0 0 0 0 0 0 0 127 0" result="hardAlpha"/>
<feOffset/>
<feGaussianBlur stdDeviation="9.08519"/>
<feColorMatrix type="matrix" values="0 0 0 0 0 0 0 0 0 0 0 0 0 0 0 0 0 0 0.0196296 0"/>
<feBlend mode="normal" in2="effect1_dropShadow_0_1" result="effect2_dropShadow_0_1"/>
<feColorMatrix in="SourceAlpha" type="matrix" values="0 0 0 0 0 0 0 0 0 0 0 0 0 0 0 0 0 0 127 0" result="hardAlpha"/>
<feOffset/>
<feGaussianBlur stdDeviation="18.1187"/>
<feColorMatrix type="matrix" values="0 0 0 0 0 0 0 0 0 0 0 0 0 0 0 0 0 0 0.025 0"/>
<feBlend mode="normal" in2="effect2_dropShadow_0_1" result="effect3_dropShadow_0_1"/>
<feColorMatrix in="SourceAlpha" type="matrix" values="0 0 0 0 0 0 0 0 0 0 0 0 0 0 0 0 0 0 127 0" result="hardAlpha"/>
<feOffset/>
<feGaussianBlur stdDeviation="35.5148"/>
<feColorMatrix type="matrix" values="0 0 0 0 0 0 0 0 0 0 0 0 0 0 0 0 0 0 0.0303704 0"/>
<feBlend mode="normal" in2="effect3_dropShadow_0_1" result="effect4_dropShadow_0_1"/>
<feColorMatrix in="SourceAlpha" type="matrix" values="0 0 0 0 0 0 0 0 0 0 0 0 0 0 0 0 0 0 127 0" result="hardAlpha"/>
<feOffset/>
<feGaussianBlur stdDeviation="65.2998"/>
<feColorMatrix type="matrix" values="0 0 0 0 0 0 0 0 0 0 0 0 0 0 0 0 0 0 0.037963 0"/>
<feBlend mode="normal" in2="effect4_dropShadow_0_1" result="effect5_dropShadow_0_1"/>
<feColorMatrix in="SourceAlpha" type="matrix" values="0 0 0 0 0 0 0 0 0 0 0 0 0 0 0 0 0 0 127 0" result="hardAlpha"/>
<feOffset/>
<feGaussianBlur stdDeviation="111.5"/>
<feColorMatrix type="matrix" values="0 0 0 0 0 0 0 0 0 0 0 0 0 0 0 0 0 0 0.05 0"/>
<feBlend mode="normal" in2="effect5_dropShadow_0_1" result="effect6_dropShadow_0_1"/>
<feBlend mode="normal" in="SourceGraphic" in2="effect6_dropShadow_0_1" result="shape"/>
</filter>
<filter id="filter1_d_0_1" x="-292.32" y="-156.48" width="369.04" height="168.96" filterUnits="userSpaceOnUse" color-interpolation-filters="sRGB">
<feFlood flood-opacity="0" result="BackgroundImageFix"/>
<feColorMatrix in="SourceAlpha" type="matrix" values="0 0 0 0 0 0 0 0 0 0 0 0 0 0 0 0 0 0 127 0" result="hardAlpha"/>
<feOffset dy="4"/>
<feGaussianBlur stdDeviation="35"/>
<feComposite in2="hardAlpha" operator="out"/>
<feColorMatrix type="matrix" values="0 0 0 0 0 0 0 0 0 0 0 0 0 0 0 0 0 0 0.1 0"/>
<feBlend mode="normal" in2="BackgroundImageFix" result="effect1_dropShadow_0_1"/>
<feBlend mode="normal" in="SourceGraphic" in2="effect1_dropShadow_0_1" result="shape"/>
</filter>
<clipPath id="clip0_0_1">
<rect x="-263" y="-138" width="891" height="911" rx="20" fill="white"/>
</clipPath>
<clipPath id="clip1_0_1">
<rect x="-223" y="-14" width="257" height="308" rx="20" fill="white"/>
</clipPath>
</defs>
</svg>
