<svg width="44" height="44" fill="none" xmlns="http://www.w3.org/2000/svg"><path d="M8.873.08c-1.195.137-2.177.428-3.303.978C2.767 2.427.758 5.088.168 8.216.045 8.866.037 9.74.037 22c0 12.26.008 13.134.131 13.784a10.052 10.052 0 0 0 8.048 8.048c.65.123 1.521.131 13.711.131 13.955 0 13.542.011 14.859-.371 1.581-.458 2.982-1.284 4.198-2.474a9.916 9.916 0 0 0 2.882-5.558c.143-.907.143-26.213 0-27.12-.325-2.056-1.259-3.9-2.748-5.426C39.681 1.543 37.931.601 35.826.167 35.292.057 34.021.044 22.33.031 15.231.023 9.176.045 8.873.08m26.665 1.06a9.029 9.029 0 0 1 6.994 6.031c.462 1.379.441.68.441 14.829 0 14.149.021 13.45-.441 14.829a9.029 9.029 0 0 1-6.994 6.031c-.571.099-2.234.113-13.538.113-14.149 0-13.45.021-14.829-.441a9.029 9.029 0 0 1-6.031-6.994c-.099-.571-.113-2.234-.113-13.538 0-14.149-.021-13.45.441-14.829A8.79 8.79 0 0 1 3.482 3.82a8.975 8.975 0 0 1 3.682-2.35c1.347-.451.621-.43 14.771-.437 11.382-.006 13.031.007 13.603.107M23.137 12.079c-.906.125-1.676.463-2.181.957-.623.61-.824 1.315-.907 3.189l-.051 1.155h-1.811v2.64h1.832l.019 5.812.019 5.811 1.778.02 1.778.02v-11.59h2.274v-2.64h-2.274v-.87c0-.765.018-.893.15-1.061.202-.256.554-.341 1.409-.342h.715v-3.058l-.825-.047c-.858-.05-1.548-.048-1.925.004" fill="#141414" fill-rule="evenodd"/></svg>