<svg aria-hidden="true" style="position: absolute; width: 0; height: 0; overflow: hidden;" version="1.1" xmlns="http://www.w3.org/2000/svg" xmlns:xlink="http://www.w3.org/1999/xlink">
<defs>
<symbol id="icon-basket" viewBox="0 0 32 32">
<path d="M15.014 0.058c-1.328 0.194-2.509 0.703-3.504 1.448l0.020-0.014c-0.639 0.516-1.196 1.096-1.672 1.739l-0.018 0.025c-0.56 0.836-1.010 1.914-1.158 2.774l-0.064 0.37h-8.626l0.030 0.146c0.016 0.082 0.966 5.776 2.112 12.654 1.144 6.878 2.094 12.572 2.11 12.654l0.032 0.146h23.448l0.032-0.146c0.016-0.082 0.966-5.776 2.11-12.654 1.146-6.878 2.096-12.572 2.112-12.654l0.030-0.146h-8.626l-0.066-0.386c-0.164-0.948-0.696-2.156-1.318-2.984-0.535-0.675-1.144-1.258-1.823-1.75l-0.027-0.018c-0.778-0.521-1.69-0.914-2.671-1.123l-0.051-0.009c-0.462-0.068-0.996-0.106-1.538-0.106-0.307 0-0.612 0.012-0.913 0.037l0.040-0.003zM16.534 2.026c1.248 0.126 2.352 0.662 3.194 1.47l-0.002-0.002c0.498 0.47 0.804 0.868 1.1 1.426 0.232 0.434 0.508 1.186 0.508 1.38 0 0.098-0.158 0.1-5.334 0.1s-5.334-0.002-5.334-0.1c0-0.194 0.276-0.946 0.508-1.38 0.296-0.558 0.602-0.956 1.1-1.426 0.86-0.818 1.952-1.328 3.132-1.466 0.514-0.060 0.624-0.060 1.128-0.002zM8.534 10.586v2.214h1.972l0.028-4.4h10.932l0.028 4.4h1.972v-4.426h3.058c1.682 0 3.070 0.012 3.084 0.026 0.022 0.022-3.466 21.118-3.556 21.506l-0.028 0.12h-20.048l-0.028-0.12c1.412 11.324 0.167 4.014-1.052-3.304l-2.504-18.202c0.014-0.014 1.402-0.026 3.084-0.026h3.058v2.212z"></path>
</symbol>
<symbol id="icon-close" viewBox="0 0 32 32">
<path d="M7.626 6.245c-0.291 0.085-0.749 0.427-1.029 0.774-0.432 0.533-0.509 1.054-0.24 1.616 0.088 0.184 1.011 1.143 3.665 3.806l3.547 3.56-3.551 3.56c-3.907 3.918-3.806 3.799-3.805 4.44 0 0.449 0.157 0.77 0.586 1.199 0.429 0.43 0.75 0.586 1.199 0.586 0.634 0 0.526 0.093 4.44-3.808l3.56-3.547 3.56 3.547c3.914 3.901 3.806 3.808 4.44 3.808 0.449 0 0.77-0.157 1.199-0.586 0.43-0.429 0.586-0.75 0.586-1.199 0-0.634 0.093-0.526-3.808-4.44l-3.547-3.56 3.547-3.56c3.901-3.914 3.808-3.806 3.808-4.44 0-0.449-0.157-0.77-0.586-1.199-0.429-0.43-0.75-0.586-1.199-0.586-0.634 0-0.526-0.093-4.44 3.808l-3.56 3.547-3.56-3.547c-2.721-2.712-3.619-3.576-3.814-3.67-0.29-0.138-0.728-0.186-1-0.109z"></path>
</symbol>
<symbol id="icon-facebook" viewBox="0 0 32 32">
<path d="M17.273 4.665c-1.768 0.29-2.795 0.998-3.17 2.183-0.209 0.664-0.293 1.335-0.327 2.658l-0.032 1.214h-2.118v3.040h2.134v13.28h4.053l0.027-13.2 2.64-0.029v-2.983l-2.64-0.029-0.017-0.64c-0.025-0.975 0.024-1.382 0.193-1.582 0.237-0.282 0.416-0.325 1.49-0.353l0.974-0.026v-3.559h-0.418c-0.23 0-0.848-0.011-1.374-0.025-0.681-0.018-1.087-0.005-1.415 0.050z"></path>
</symbol>
<symbol id="icon-instagram" viewBox="0 0 32 32">
<path d="M11.12 3.261c-1.423 0.067-2.296 0.211-3.248 0.536-1.378 0.489-2.514 1.378-3.298 2.525l-0.015 0.023c-0.753 1.131-1.129 2.368-1.265 4.16-0.089 1.176-0.090 9.88-0.001 10.97 0.19 2.321 0.81 3.858 2.066 5.114 0.767 0.767 1.574 1.255 2.687 1.626 1.558 0.518 2.099 0.555 7.981 0.558 4.798 0.001 5.758-0.030 6.749-0.215 1.013-0.189 1.971-0.539 2.661-0.974 2.007-1.264 3.035-3.139 3.263-5.95 0.088-1.097 0.126-8.306 0.053-10.048-0.082-1.923-0.192-2.674-0.547-3.714-0.683-1.912-2.163-3.392-4.029-4.061l-0.046-0.014c-1.041-0.355-1.814-0.47-3.648-0.542-1.645-0.064-7.958-0.059-9.36 0.006zM23.289 7.706c0.342 0.102 0.726 0.437 0.91 0.794 0.183 0.354 0.198 0.896 0.032 1.262-0.537 1.194-2.177 1.25-2.768 0.095-0.616-1.205 0.518-2.539 1.826-2.151zM16.679 9.443c2.126 0.235 3.926 1.448 4.962 3.174l0.017 0.030c0.921 1.533 1.151 3.542 0.605 5.281-0.807 2.516-3.025 4.348-5.7 4.574l-0.024 0.002c-0.167 0.015-0.361 0.024-0.558 0.024-2.728 0-5.067-1.663-6.059-4.031l-0.016-0.043c-0.304-0.733-0.481-1.584-0.481-2.477 0-1.231 0.336-2.384 0.922-3.371l-0.017 0.031c1.318-2.218 3.817-3.475 6.351-3.193zM15.083 12.079c-1.395 0.354-2.441 1.333-2.907 2.721-0.126 0.376-0.143 0.511-0.146 1.146-0.002 0.611 0.017 0.781 0.122 1.119 0.381 1.215 1.146 2.079 2.287 2.581 0.457 0.201 0.963 0.299 1.551 0.301 0.019 0 0.042 0.001 0.065 0.001 0.612 0 1.19-0.148 1.7-0.41l-0.021 0.010c1.339-0.657 2.244-2.011 2.244-3.576 0-0.474-0.083-0.929-0.236-1.351l0.009 0.028c-0.424-1.193-1.32-2.058-2.579-2.488-0.449-0.153-1.622-0.198-2.088-0.080z"></path>
</symbol>
<symbol id="icon-logo" viewBox="0 0 32 32">
<path d="M1.562 0.184c-0.629 0.233-1.127 0.693-1.404 1.279l-0.006 0.015c-0.124 0.304-0.126 0.338-0.14 2.652-0.016 2.228-0.010 2.362 0.092 2.7 0.202 0.664 0.68 1.166 1.384 1.448 0.29 0.118 0.358 0.122 2.566 0.138 1.574 0.012 2.364 0 2.586-0.044 0.732-0.142 1.328-0.6 1.642-1.264l0.172-0.362 0.014-2.37c0.016-2.244 0.010-2.388-0.090-2.722-0.228-0.696-0.765-1.235-1.444-1.461l-0.016-0.005c-0.372-0.112-5.004-0.114-5.356-0.004zM13.162 0.268c-0.705 0.148-1.283 0.6-1.598 1.209l-0.006 0.013-0.172 0.35v5.068l0.178 0.362c0.226 0.458 0.604 0.836 1.062 1.060l0.36 0.176h5.18l0.406-0.2c0.624-0.308 1.012-0.786 1.188-1.462 0.118-0.456 0.116-4.492-0.002-4.952-0.224-0.833-0.9-1.464-1.742-1.618l-0.014-0.002c-0.364-0.068-4.444-0.070-4.84-0.004zM24.52 0.378c-0.617 0.172-1.119 0.577-1.416 1.112l-0.006 0.012c-0.264 0.526-0.278 0.698-0.26 3.146 0.016 2.206 0.018 2.266 0.136 2.552 0.248 0.602 0.692 1.044 1.292 1.292 0.288 0.118 0.344 0.122 2.632 0.138 1.518 0.010 2.436-0.004 2.614-0.042 0.808-0.168 1.458-0.748 1.71-1.528 0.078-0.242 0.086-0.56 0.074-2.694l-0.016-2.42-0.144-0.308c-0.312-0.617-0.861-1.075-1.525-1.258l-0.017-0.004c-0.29-0.066-4.79-0.066-5.074 0.002zM1.762 11.632c-0.638 0.124-1.266 0.632-1.564 1.26l-0.172 0.362-0.014 2.382c-0.016 2.302-0.012 2.392 0.096 2.716 0.242 0.718 0.794 1.256 1.5 1.458 0.262 0.076 0.614 0.086 2.746 0.072 2.442-0.016 2.446-0.016 2.766-0.144 0.446-0.178 1.026-0.758 1.206-1.204l0.128-0.32v-4.966l-0.202-0.406c-0.305-0.625-0.878-1.078-1.566-1.212l-0.014-0.002c-0.35-0.066-4.57-0.062-4.91 0.004zM13.73 11.736c-0.852 0.13-1.538 0.722-1.801 1.508l-0.005 0.016c-0.078 0.242-0.086 0.56-0.072 2.694l0.014 2.422 0.184 0.372c0.228 0.464 0.61 0.844 1.070 1.060l0.346 0.166h5.228l0.35-0.172c0.58-0.284 1.032-0.84 1.204-1.482 0.11-0.416 0.102-4.528-0.010-4.962-0.235-0.872-0.97-1.522-1.872-1.627l-0.010-0.001c-0.44-0.058-4.182-0.052-4.626 0.006zM24.4 12.020c-0.558 0.18-0.948 0.476-1.26 0.956-0.34 0.526-0.366 0.754-0.366 3.094 0 1.154 0.022 2.172 0.054 2.332 0.17 0.906 0.906 1.644 1.806 1.812 0.162 0.030 1.216 0.052 2.426 0.052 2.278 0 2.548-0.026 3.032-0.272 0.31-0.158 0.744-0.584 0.914-0.898 0.268-0.49 0.298-0.802 0.3-2.992 0-1.226-0.022-2.128-0.058-2.32-0.121-0.715-0.577-1.303-1.197-1.604l-0.013-0.006-0.406-0.2-2.51-0.012c-1.924-0.008-2.558 0.006-2.722 0.058zM13.206 23.044c-0.61 0.148-1.304 0.74-1.534 1.314-0.126 0.308-0.126 0.314-0.126 2.788v2.48l0.172 0.362c0.192 0.408 0.62 0.87 0.964 1.046 0.502 0.256 0.688 0.272 3.078 0.272 2.372 0 2.578-0.018 3.058-0.262 0.38-0.194 0.742-0.574 0.954-1.006l0.202-0.406 0.016-2.366c0.016-2.574 0.006-2.686-0.29-3.192-0.256-0.381-0.601-0.684-1.007-0.883l-0.015-0.007-0.358-0.17-2.454-0.010c-1.374-0.006-2.544 0.012-2.66 0.040zM24.786 23.044c-0.654 0.19-1.183 0.629-1.488 1.205l-0.006 0.013-0.172 0.352v5.012l0.17 0.36c0.314 0.662 0.89 1.122 1.586 1.266 0.192 0.040 1.054 0.054 2.626 0.044 2.232-0.016 2.35-0.022 2.61-0.128 0.612-0.252 1.076-0.708 1.31-1.288 0.124-0.306 0.124-0.316 0.124-2.76v-2.454l-0.17-0.358c-0.223-0.483-0.597-0.864-1.061-1.090l-0.013-0.006-0.402-0.198-2.458-0.010c-1.35-0.004-2.546 0.012-2.656 0.040zM1.866 23.098c-0.702 0.136-1.462 0.742-1.714 1.366-0.124 0.308-0.126 0.316-0.126 2.736s0.002 2.428 0.126 2.736c0.256 0.634 0.992 1.214 1.734 1.37 0.196 0.040 1.106 0.054 2.84 0.044 2.502-0.016 2.56-0.020 2.874-0.138 0.682-0.256 1.194-0.752 1.426-1.38 0.11-0.296 0.118-0.414 0.136-2.33 0.022-2.222-0.012-2.694-0.234-3.162-0.28-0.592-0.994-1.114-1.698-1.242-0.382-0.070-5.004-0.070-5.364 0z"></path>
</symbol>
<symbol id="icon-shopping-arrow" viewBox="0 0 32 32">
<path d="M1.774 1.774l-1.774 1.774 23.707 23.705h-23.733l4.745 4.747h27.28v-27.28l-4.747-4.745v23.733l-23.705-23.707-1.774 1.774z"></path>
</symbol>
<symbol id="icon-shopping-cart" viewBox="0 0 32 32">
<path d="M0.72 0.26c-0.397 0.183-0.56 0.493-0.56 1.073 0 0.547 0.152 0.864 0.507 1.059 0.14 0.077 0.467 0.092 2.587 0.115l2.427 0.027 0.579 2.88 1.739 8.672c1.123 5.611 1.167 5.807 1.377 6.24 0.492 1.017 1.386 1.773 2.47 2.070l0.027 0.006c0.4 0.103 0.62 0.105 7.515 0.105s7.115-0.003 7.515-0.105c1.376-0.382 2.43-1.464 2.766-2.828l0.006-0.027c0.067-0.288 1.657-8.601 2.137-11.173 0.14-0.745 0.016-1.124-0.453-1.387l-0.237-0.133-22.133-0.053-0.593-2.945c-0.325-1.62-0.621-3.015-0.657-3.1-0.115-0.232-0.306-0.412-0.541-0.509l-0.007-0.003c-0.171-0.072-0.607-0.083-3.227-0.081-2.824 0.001-3.043 0.008-3.241 0.099zM29.189 9.213c0.036 0.063-1.819 9.719-1.917 9.984-0.12 0.323-0.444 0.659-0.78 0.809l-0.279 0.127h-13.653l-0.279-0.127c-0.351-0.169-0.624-0.451-0.776-0.799l-0.004-0.010c-0.085-0.227-2.008-9.735-2.008-9.929 0-0.091 0.471-0.095 9.837-0.095 5.409 0 9.847 0.019 9.859 0.040zM11.303 25.431c-1.145 0.299-1.979 1.404-1.967 2.607 0.013 1.276 0.984 2.391 2.251 2.585 0.871 0.133 1.659-0.125 2.284-0.752 0.432-0.432 0.664-0.88 0.752-1.457 0.021-0.124 0.032-0.267 0.032-0.413 0-1.467-1.188-2.657-2.655-2.66h-0c-0.191 0-0.504 0.041-0.697 0.091zM25.969 25.431c-1.145 0.299-1.979 1.404-1.967 2.607 0.013 1.276 0.984 2.391 2.251 2.585 0.871 0.133 1.659-0.125 2.284-0.752 0.432-0.432 0.664-0.88 0.752-1.457 0.021-0.124 0.032-0.267 0.032-0.413 0-1.467-1.188-2.657-2.655-2.66h-0c-0.191 0-0.504 0.041-0.697 0.091z"></path>
</symbol>
<symbol id="icon-youtube" viewBox="0 0 32 32">
<path d="M9.546 5.923c-3.041 0.122-4.53 0.395-5.701 1.048-0.411 0.229-0.926 0.734-1.175 1.157-0.246 0.415-0.509 1.221-0.61 1.872-0.15 0.959-0.207 3.115-0.178 6.722 0.016 1.998 0.053 3.654 0.089 3.998 0.305 2.914 1.245 4.054 3.797 4.607 1.529 0.331 3.321 0.401 10.258 0.402 5.449 0 6.906-0.035 8.64-0.213 2.016-0.206 3.19-0.622 3.976-1.408 0.453-0.453 0.704-0.885 0.927-1.593 0.321-1.027 0.405-2.435 0.403-6.826-0.001-4.797-0.123-6.050-0.713-7.287-0.734-1.542-2.343-2.233-5.665-2.433-1.195-0.072-12.477-0.109-14.048-0.046zM16.814 13.253c2.339 1.402 4.253 2.567 4.253 2.587s-1.913 1.185-4.253 2.587c-10.082 5.747-11.51 6.616-12.937 7.488l8.563-4.86-0.12 0.078v-10.585l0.12 0.078c0.066 0.042 2.034 1.224 4.374 2.627z"></path>
</symbol>
<symbol id="icon-burger" viewBox="0 0 32 32">
<path d="M2.667 7.993c0-0.733 0.595-1.327 1.327-1.327h10.68c0.733 0 1.327 0.594 1.327 1.327s-0.594 1.327-1.327 1.327h-10.68c-0.733 0-1.327-0.594-1.327-1.327v0zM2.667 16c0-0.733 0.595-1.327 1.327-1.327h24.013c0.733 0 1.327 0.594 1.327 1.327s-0.594 1.327-1.327 1.327h-24.013c-0.733 0-1.327-0.594-1.327-1.327v0zM3.993 22.68c-0.733 0-1.327 0.594-1.327 1.327s0.594 1.327 1.327 1.327h16.013c0.733 0 1.327-0.594 1.327-1.327s-0.594-1.327-1.327-1.327h-16.013z"></path>
</symbol>
<symbol id="icon-pick" viewBox="0 0 32 32">
<path d="M26.149 1.403c0.584-0.853 1.553-1.405 2.651-1.405 1.769 0 3.203 1.434 3.203 3.203 0 0.671-0.206 1.294-0.559 1.808l0.007-0.011-17.36 25.6c-0.584 0.852-1.551 1.403-2.648 1.403s-2.064-0.552-2.641-1.392l-0.007-0.011-8.245-12.16c-0.346-0.504-0.552-1.126-0.552-1.797 0-1.769 1.434-3.203 3.203-3.203 1.098 0 2.067 0.552 2.644 1.394l0.007 0.011 5.595 8.256 14.704-21.696z"></path>
</symbol>
<symbol id="icon-up-button" viewBox="0 0 32 32">
<path d="M27.414 12.586l-10-10c-0.781-0.781-2.047-0.781-2.828 0l-10 10c-0.781 0.781-0.781 2.047 0 2.828s2.047 0.781 2.828 0l6.586-6.586v19.172c0 1.105 0.895 2 2 2s2-0.895 2-2v-19.172l6.586 6.586c0.39 0.39 0.902 0.586 1.414 0.586s1.024-0.195 1.414-0.586c0.781-0.781 0.781-2.047 0-2.828z"></path>
</symbol>
</defs>
</svg>
