<svg aria-hidden="true" style="position: absolute; width: 0; height: 0; overflow: hidden;" version="1.1" xmlns="http://www.w3.org/2000/svg" xmlns:xlink="http://www.w3.org/1999/xlink">
<defs>
<symbol id="icon-logo" viewBox="0 0 32 32">
<path d="M29.082 0.314h-4.009c-1.237 0-2.24 0.983-2.24 2.195v3.929c0 1.212 1.003 2.195 2.24 2.195h4.009c1.237 0 2.24-0.983 2.24-2.195v-3.929c0-1.212-1.003-2.195-2.24-2.195z"></path>
<path d="M6.73 23.040h-4.318c-1.332 0-2.412 0.983-2.412 2.195v3.929c0 1.213 1.080 2.195 2.412 2.195h4.318c1.332 0 2.412-0.983 2.412-2.195v-3.929c0-1.212-1.080-2.195-2.412-2.195z"></path>
<path d="M6.25 11.582h-4.009c-1.237 0-2.24 0.983-2.24 2.195v3.929c0 1.212 1.003 2.195 2.24 2.195h4.009c1.237 0 2.24-0.983 2.24-2.195v-3.929c0-1.212-1.003-2.195-2.24-2.195z"></path>
<path d="M17.766 22.978h-4.009c-1.237 0-2.24 0.983-2.24 2.195l-0 3.929c0 1.212 1.003 2.195 2.241 2.195h4.009c1.237 0 2.24-0.983 2.24-2.195v-3.929c0-1.212-1.003-2.195-2.24-2.195z"></path>
<path d="M6.25 0.086h-4.009c-1.237 0-2.24 0.983-2.24 2.195v3.929c0 1.212 1.003 2.195 2.24 2.195h4.009c1.237 0 2.24-0.983 2.24-2.195v-3.929c0-1.212-1.003-2.195-2.24-2.195z"></path>
<path d="M18.076 11.697h-4.009c-1.237 0-2.24 0.983-2.24 2.195v3.929c0 1.212 1.003 2.195 2.24 2.195h4.009c1.237 0 2.24-0.983 2.24-2.195v-3.929c0-1.212-1.003-2.195-2.24-2.195z"></path>
<path d="M29.333 22.978h-4.010c-1.237 0-2.24 0.983-2.24 2.195v3.929c0 1.212 1.003 2.195 2.24 2.195h4.009c1.237 0 2.24-0.983 2.24-2.195v-3.929c0-1.212-1.003-2.195-2.24-2.195z"></path>
<path d="M17.591 0.224h-4.009c-1.237 0-2.24 0.983-2.24 2.195v3.929c0 1.212 1.003 2.195 2.24 2.195h4.009c1.237 0 2.24-0.984 2.24-2.196v-3.929c0-1.212-1.003-2.195-2.24-2.195z"></path>
<path d="M29.044 11.926h-4.010c-1.237 0-2.24 0.983-2.24 2.195v3.929c0 1.212 1.003 2.195 2.24 2.195h4.009c1.237 0 2.24-0.983 2.24-2.195v-3.929c0-1.212-1.003-2.195-2.24-2.195z"></path>
</symbol>
<symbol id="icon-basket" viewBox="0 0 32 32">
<path d="M15.086 0.056c-1.371 0.187-2.594 0.71-3.617 1.484l0.019-0.014c-0.618 0.504-1.157 1.067-1.62 1.689l-0.018 0.025c-0.582 0.874-1.018 1.91-1.166 2.774l-0.066 0.386h-8.626l0.030 0.146c0.016 0.082 0.966 5.776 2.112 12.654 1.144 6.878 2.094 12.572 2.11 12.654l0.032 0.146h23.448l0.032-0.146c0.016-0.082 0.966-5.776 2.11-12.654 1.146-6.878 2.096-12.572 2.112-12.654l0.030-0.146h-8.626l-0.064-0.37c-0.146-0.856-0.592-1.926-1.156-2.776-0.342-0.516-1.434-1.608-1.948-1.948-0.807-0.545-1.756-0.952-2.777-1.161l-0.051-0.009c-0.451-0.071-0.972-0.111-1.502-0.111-0.281 0-0.559 0.011-0.834 0.034l0.036-0.002zM16.534 2.026c1.248 0.126 2.352 0.662 3.194 1.47l-0.002-0.002c0.498 0.47 0.804 0.868 1.1 1.426 0.232 0.434 0.508 1.186 0.508 1.38 0 0.098-0.158 0.1-5.334 0.1s-5.334-0.002-5.334-0.1c0-0.194 0.276-0.946 0.508-1.38 0.296-0.558 0.602-0.956 1.1-1.426 0.86-0.818 1.952-1.328 3.132-1.466 0.514-0.060 0.624-0.060 1.128-0.002zM8.534 10.586v2.214h1.972l0.028-4.4h10.932l0.028 4.4h1.972v-4.426h3.058c1.682 0 3.070 0.012 3.084 0.026 0.022 0.022-3.466 21.118-3.556 21.506l-0.028 0.12h-20.048l-0.028-0.12c1.412 11.324 0.167 4.014-1.052-3.304l-2.504-18.202c0.014-0.014 1.402-0.026 3.084-0.026h3.058v2.212z"></path>
</symbol>
<symbol id="icon-burger-menu" viewBox="0 0 32 32">
<path d="M3.56 6.743c-0.307 0.116-0.556 0.328-0.715 0.599l-0.004 0.006c-0.201 0.341-0.209 0.873-0.021 1.256 0.157 0.32 0.521 0.597 0.887 0.677 0.187 0.041 1.929 0.053 5.787 0.041 5.36-0.016 5.527-0.019 5.731-0.12 1.068-0.531 0.995-2.063-0.117-2.46-0.296-0.105-11.251-0.105-11.547 0zM3.556 14.753c-0.488 0.149-0.889 0.712-0.889 1.247 0 0.323 0.159 0.695 0.399 0.935 0.435 0.435-0.751 0.399 12.935 0.399 13.689 0 12.5 0.037 12.936-0.4 0.716-0.716 0.377-1.964-0.6-2.211-0.153-0.039-3.989-0.055-12.373-0.052-10.583 0.003-12.183 0.013-12.407 0.083zM3.697 22.717c-0.159 0.051-0.296 0.113-0.424 0.189l0.009-0.005c-0.925 0.543-0.756 1.988 0.277 2.356 0.296 0.105 16.584 0.105 16.88 0 0.52-0.194 0.883-0.686 0.883-1.263 0-0.309-0.104-0.593-0.279-0.82l0.002 0.003c-0.117-0.129-0.253-0.237-0.405-0.321l-0.008-0.004-0.287-0.159-8.24-0.008c-4.532-0.005-8.316 0.009-8.409 0.032z"></path>
</symbol>
<symbol id="icon-close" viewBox="0 0 32 32">
<path d="M7.626 6.245c-0.291 0.085-0.749 0.427-1.029 0.774-0.432 0.533-0.509 1.054-0.24 1.616 0.088 0.184 1.011 1.143 3.665 3.806l3.547 3.56-3.551 3.56c-3.907 3.918-3.806 3.799-3.805 4.44 0 0.449 0.157 0.77 0.586 1.199 0.429 0.43 0.75 0.586 1.199 0.586 0.634 0 0.526 0.093 4.44-3.808l3.56-3.547 3.56 3.547c3.914 3.901 3.806 3.808 4.44 3.808 0.449 0 0.77-0.157 1.199-0.586 0.43-0.429 0.586-0.75 0.586-1.199 0-0.634 0.093-0.526-3.808-4.44l-3.547-3.56 3.547-3.56c3.901-3.914 3.808-3.806 3.808-4.44 0-0.449-0.157-0.77-0.586-1.199-0.429-0.43-0.75-0.586-1.199-0.586-0.634 0-0.526-0.093-4.44 3.808l-3.56 3.547-3.56-3.547c-2.721-2.712-3.619-3.576-3.814-3.67-0.29-0.138-0.728-0.186-1-0.109z"></path>
</symbol>
<symbol id="icon-facebook" viewBox="0 0 32 32">
<path d="M6.453 0.058c-0.869 0.1-1.583 0.311-2.402 0.711-2.039 0.996-3.5 2.931-3.929 5.206-0.089 0.473-0.095 1.108-0.095 10.025s0.006 9.552 0.095 10.025c0.567 2.976 2.877 5.286 5.807 5.846l0.046 0.007c0.473 0.089 1.106 0.095 9.972 0.095 10.149 0 9.849 0.008 10.807-0.27 1.15-0.333 2.169-0.934 3.053-1.799 1.084-1.054 1.836-2.444 2.090-4.001l0.006-0.042c0.104-0.66 0.104-19.064 0-19.724-0.236-1.495-0.916-2.836-1.999-3.946-1.045-1.070-2.318-1.755-3.849-2.071-0.388-0.080-1.313-0.089-9.815-0.099-5.163-0.006-9.567 0.010-9.787 0.036zM25.846 0.829c2.395 0.434 4.313 2.119 5.073 4.34l0.014 0.046c0.336 1.003 0.321 0.495 0.321 10.785s0.015 9.782-0.321 10.785c-0.774 2.268-2.691 3.952-5.046 4.38l-0.040 0.006c-0.415 0.072-1.625 0.082-9.846 0.082-10.29 0-9.782 0.015-10.785-0.321-2.268-0.774-3.952-2.691-4.38-5.046l-0.006-0.040c-0.072-0.415-0.082-1.625-0.082-9.846 0-10.29-0.015-9.782 0.321-10.785 0.317-0.951 0.819-1.766 1.467-2.439l-0.002 0.002c0.722-0.763 1.621-1.35 2.632-1.695l0.046-0.014c0.98-0.328 0.452-0.313 10.743-0.318 8.278-0.004 9.477 0.005 9.893 0.078zM16.827 8.785c-0.659 0.091-1.219 0.337-1.586 0.696-0.453 0.444-0.599 0.956-0.66 2.319l-0.037 0.84h-1.317v1.92h1.332l0.014 4.227 0.014 4.226 2.586 0.029v-8.429h1.654v-1.92h-1.654v-0.633c0-0.556 0.013-0.649 0.109-0.772 0.147-0.186 0.403-0.248 1.025-0.249h0.52v-2.224l-0.6-0.034c-0.624-0.036-1.126-0.035-1.4 0.003z"></path>
</symbol>
<symbol id="icon-instagram" viewBox="0 0 32 32">
<path d="M6.453 0.058c-0.869 0.1-1.583 0.311-2.402 0.711-2.039 0.996-3.5 2.931-3.929 5.206-0.089 0.473-0.095 1.108-0.095 10.025s0.006 9.552 0.095 10.025c0.567 2.976 2.877 5.286 5.807 5.846l0.046 0.007c0.473 0.089 1.106 0.095 9.972 0.095 10.149 0 9.849 0.008 10.807-0.27 1.15-0.333 2.169-0.934 3.053-1.799 1.084-1.054 1.836-2.444 2.090-4.001l0.006-0.042c0.104-0.66 0.104-19.064 0-19.724-0.236-1.495-0.916-2.836-1.999-3.946-1.045-1.070-2.318-1.755-3.849-2.071-0.388-0.080-1.313-0.089-9.815-0.099-5.163-0.006-9.567 0.010-9.787 0.036zM25.846 0.829c2.395 0.434 4.313 2.119 5.073 4.34l0.014 0.046c0.336 1.003 0.321 0.495 0.321 10.785s0.015 9.782-0.321 10.785c-0.774 2.268-2.691 3.952-5.046 4.38l-0.040 0.006c-0.415 0.072-1.625 0.082-9.846 0.082-10.29 0-9.782 0.015-10.785-0.321-2.268-0.774-3.952-2.691-4.38-5.046l-0.006-0.040c-0.072-0.415-0.082-1.625-0.082-9.846 0-10.29-0.015-9.782 0.321-10.785 0.317-0.951 0.819-1.766 1.467-2.439l-0.002 0.002c0.722-0.763 1.621-1.35 2.632-1.695l0.046-0.014c0.98-0.328 0.452-0.313 10.743-0.318 8.278-0.004 9.477 0.005 9.893 0.078zM12.987 7.897c-1.88 0.084-2.95 0.489-3.849 1.458-0.588 0.632-0.903 1.265-1.108 2.226-0.187 0.875-0.247 6.708-0.084 8.199 0.25 2.3 1.492 3.718 3.654 4.175 1.148 0.243 7.204 0.274 8.644 0.045 2.011-0.319 3.417-1.72 3.756-3.74 0.139-0.829 0.2-4.72 0.109-6.953-0.055-1.359-0.108-1.74-0.327-2.4-0.5-1.503-1.681-2.517-3.327-2.86-0.863-0.18-4.945-0.262-7.468-0.15zM20.722 10.767c0.331 0.15 0.611 0.556 0.611 0.886 0 0.168-0.133 0.481-0.272 0.639-0.551 0.627-1.567 0.309-1.682-0.526-0.045-0.331 0.057-0.583 0.335-0.828 0.329-0.289 0.633-0.34 1.008-0.17zM16.554 11.843c1.485 0.207 2.729 1.174 3.323 2.584 0.344 0.817 0.38 2.023 0.086 2.865-0.572 1.638-2.011 2.75-3.687 2.85-1.284 0.077-2.346-0.332-3.265-1.257-0.387-0.389-0.497-0.543-0.732-1.018-0.356-0.722-0.455-1.139-0.452-1.92 0.001-0.505 0.027-0.698 0.144-1.092 0.413-1.391 1.404-2.418 2.749-2.851 0.373-0.13 0.803-0.205 1.251-0.205 0.206 0 0.408 0.016 0.605 0.047l-0.022-0.003zM15.467 13.498c-0.132 0.025-0.412 0.131-0.621 0.234-0.958 0.472-1.53 1.588-1.353 2.636 0.209 1.236 1.256 2.142 2.473 2.137 0.715-0.002 1.233-0.204 1.745-0.679 0.551-0.509 0.803-1.095 0.802-1.858-0.001-1.607-1.448-2.78-3.047-2.471z"></path>
</symbol>
<symbol id="icon-order-arrow" viewBox="0 0 32 32">
<path d="M1.774 1.774l-1.774 1.774 23.707 23.705h-23.733l4.745 4.747h27.28v-27.28l-4.747-4.745v23.733l-23.705-23.707-1.774 1.774z"></path>
</symbol>
<symbol id="icon-shopping-cart" viewBox="0 0 32 32">
<path d="M0.72 0.26c-0.397 0.183-0.56 0.493-0.56 1.073 0 0.547 0.152 0.864 0.507 1.059 0.14 0.077 0.467 0.092 2.587 0.115l2.427 0.027 0.579 2.88 1.739 8.672c1.123 5.611 1.167 5.807 1.377 6.24 0.492 1.017 1.386 1.773 2.47 2.070l0.027 0.006c0.4 0.103 0.62 0.105 7.515 0.105s7.115-0.003 7.515-0.105c1.376-0.382 2.43-1.464 2.766-2.828l0.006-0.027c0.067-0.288 1.657-8.601 2.137-11.173 0.14-0.745 0.016-1.124-0.453-1.387l-0.237-0.133-22.133-0.053-0.593-2.945c-0.325-1.62-0.621-3.015-0.657-3.1-0.115-0.232-0.306-0.412-0.541-0.509l-0.007-0.003c-0.171-0.072-0.607-0.083-3.227-0.081-2.824 0.001-3.043 0.008-3.241 0.099zM29.189 9.213c0.036 0.063-1.819 9.719-1.917 9.984-0.12 0.323-0.444 0.659-0.78 0.809l-0.279 0.127h-13.653l-0.279-0.127c-0.351-0.169-0.624-0.451-0.776-0.799l-0.004-0.010c-0.085-0.227-2.008-9.735-2.008-9.929 0-0.091 0.471-0.095 9.837-0.095 5.409 0 9.847 0.019 9.859 0.040zM11.303 25.431c-1.145 0.299-1.979 1.404-1.967 2.607 0.013 1.276 0.984 2.391 2.251 2.585 0.871 0.133 1.659-0.125 2.284-0.752 0.432-0.432 0.664-0.88 0.752-1.457 0.021-0.124 0.032-0.267 0.032-0.413 0-1.467-1.188-2.657-2.655-2.66h-0c-0.191 0-0.504 0.041-0.697 0.091zM25.969 25.431c-1.145 0.299-1.979 1.404-1.967 2.607 0.013 1.276 0.984 2.391 2.251 2.585 0.871 0.133 1.659-0.125 2.284-0.752 0.432-0.432 0.664-0.88 0.752-1.457 0.021-0.124 0.032-0.267 0.032-0.413 0-1.467-1.188-2.657-2.655-2.66h-0c-0.191 0-0.504 0.041-0.697 0.091z"></path>
</symbol>
<symbol id="icon-youtube" viewBox="0 0 32 32">
<path d="M6.453 0.058c-0.869 0.1-1.583 0.311-2.402 0.711-2.039 0.996-3.5 2.931-3.929 5.206-0.089 0.473-0.095 1.108-0.095 10.025s0.006 9.552 0.095 10.025c0.567 2.976 2.877 5.286 5.807 5.846l0.046 0.007c0.473 0.089 1.106 0.095 9.972 0.095 10.149 0 9.849 0.008 10.807-0.27 1.15-0.333 2.169-0.934 3.053-1.799 1.084-1.054 1.836-2.444 2.090-4.001l0.006-0.042c0.104-0.66 0.104-19.064 0-19.724-0.236-1.495-0.916-2.836-1.999-3.946-1.045-1.070-2.318-1.755-3.849-2.071-0.388-0.080-1.313-0.089-9.815-0.099-5.163-0.006-9.567 0.010-9.787 0.036zM25.846 0.829c2.395 0.434 4.313 2.119 5.073 4.34l0.014 0.046c0.336 1.003 0.321 0.495 0.321 10.785s0.015 9.782-0.321 10.785c-0.774 2.268-2.691 3.952-5.046 4.38l-0.040 0.006c-0.415 0.072-1.625 0.082-9.846 0.082-10.29 0-9.782 0.015-10.785-0.321-2.268-0.774-3.952-2.691-4.38-5.046l-0.006-0.040c-0.072-0.415-0.082-1.625-0.082-9.846 0-10.29-0.015-9.782 0.321-10.785 0.317-0.951 0.819-1.766 1.467-2.439l-0.002 0.002c0.722-0.763 1.621-1.35 2.632-1.695l0.046-0.014c0.98-0.328 0.452-0.313 10.743-0.318 8.278-0.004 9.477 0.005 9.893 0.078zM11.653 9.604c-2.647 0.116-3.754 0.54-4.24 1.617-0.238 0.528-0.317 1.009-0.373 2.26-0.103 2.295-0.041 5.275 0.128 6.151 0.258 1.344 0.806 1.912 2.175 2.257 0.916 0.231 1.356 0.253 5.647 0.282 6.047 0.041 7.345-0.052 8.47-0.604 0.497-0.244 0.77-0.516 1-1.001 0.263-0.553 0.335-0.975 0.401-2.353 0.065-1.349 0.029-4.959-0.057-5.643-0.202-1.623-0.788-2.35-2.169-2.696-0.69-0.173-1.144-0.222-2.55-0.275-1.539-0.058-7.088-0.055-8.431 0.004zM16.373 14.159c3.476 1.995 4.378 2.546 5.28 3.099l-2.514-1.435c0.122 0.078 0.054 0.123-2.454 1.628-1.418 0.851-2.681 1.607-2.805 1.681l-0.227 0.132v-3.368c0-1.852 0.018-3.357 0.040-3.344l2.68 1.607z"></path>
</symbol>
<symbol id="icon-checkbox-checked" viewBox="0 0 32 32">
<path d="M20.731 9.664c-0.181 0.070-0.335 0.173-0.462 0.302l-0 0c-0.165 0.157-1.299 1.787-3.123 4.486-1.913 2.903-2.876 4.305-3.848 5.701l0.922-1.398c-0.045 0.046-0.339-0.352-1.179-1.595-0.616-0.91-1.189-1.726-1.272-1.81-0.262-0.264-0.451-0.334-0.888-0.336-0.339-0.002-0.437 0.021-0.643 0.142-0.381 0.229-0.633 0.64-0.633 1.11 0 0.135 0.021 0.265 0.059 0.387l-0.002-0.009c0.074 0.214 3.416 5.17 3.638 5.392s0.53 0.361 0.869 0.361c0.328 0 0.626-0.129 0.847-0.339l-0.001 0c0.214-0.202 6.978-10.112 7.24-10.611 0.088-0.165 0.14-0.36 0.14-0.568 0-0.369-0.163-0.699-0.422-0.924l-0.002-0.001c-0.363-0.328-0.755-0.419-1.24-0.291z"></path>
</symbol>
</defs>
</svg>







