<svg width="28" height="28" fill="none" xmlns="http://www.w3.org/2000/svg"><path d="M9.73 2.853c-1.245.059-2.009.185-2.842.469a5.808 5.808 0 0 0-2.899 2.229c-.659.99-.988 2.072-1.107 3.64-.078 1.029-.079 8.645-.001 9.599.166 2.031.709 3.376 1.808 4.475.671.671 1.377 1.098 2.351 1.423 1.363.453 1.837.486 6.983.488 4.198.001 5.038-.026 5.905-.188.886-.165 1.725-.472 2.328-.852 1.756-1.106 2.656-2.747 2.855-5.206.077-.96.11-7.268.046-8.792-.072-1.683-.168-2.34-.479-3.25a5.813 5.813 0 0 0-3.566-3.566c-.911-.311-1.587-.411-3.192-.474-1.439-.056-6.963-.052-8.19.005m10.648 3.89c.299.089.635.382.796.695.16.31.173.784.028 1.104-.47 1.045-1.905 1.094-2.422.083-.539-1.054.453-2.222 1.598-1.882m-5.784 1.52a5.78 5.78 0 0 1 4.356 2.803c.806 1.341 1.007 3.099.529 4.621a5.742 5.742 0 0 1-5.009 4.004 5.746 5.746 0 0 1-5.804-3.544 5.79 5.79 0 0 1 .371-5.09c1.153-1.941 3.34-3.041 5.557-2.794m-1.396 2.306c-1.221.31-2.136 1.166-2.544 2.381-.11.329-.125.447-.128 1.003-.002.535.015.683.107.979.333 1.063 1.003 1.819 2.001 2.258.4.176.843.262 1.357.263a3.254 3.254 0 0 0 1.526-.35 3.475 3.475 0 0 0 1.765-4.287c-.371-1.044-1.155-1.801-2.257-2.177-.393-.134-1.419-.173-1.827-.07" fill-rule="evenodd" fill="#000"/></svg>