<svg width="44" height="44" fill="none" xmlns="http://www.w3.org/2000/svg"><path d="M8.873.08c-1.195.137-2.177.428-3.303.978C2.767 2.427.758 5.088.168 8.216.045 8.866.037 9.74.037 22c0 12.26.008 13.134.131 13.784a10.052 10.052 0 0 0 8.048 8.048c.65.123 1.521.131 13.711.131 13.955 0 13.542.011 14.859-.371 1.581-.458 2.982-1.284 4.198-2.474a9.916 9.916 0 0 0 2.882-5.558c.143-.907.143-26.213 0-27.12-.325-2.056-1.259-3.9-2.748-5.426C39.681 1.543 37.931.601 35.826.167 35.292.057 34.021.044 22.33.031 15.231.023 9.176.045 8.873.08m26.665 1.06a9.029 9.029 0 0 1 6.994 6.031c.462 1.379.441.68.441 14.829 0 14.149.021 13.45-.441 14.829a9.029 9.029 0 0 1-6.994 6.031c-.571.099-2.234.113-13.538.113-14.149 0-13.45.021-14.829-.441a9.029 9.029 0 0 1-6.031-6.994c-.099-.571-.113-2.234-.113-13.538 0-14.149-.021-13.45.441-14.829A8.79 8.79 0 0 1 3.482 3.82a8.975 8.975 0 0 1 3.682-2.35c1.347-.451.621-.43 14.771-.437 11.382-.006 13.031.007 13.603.107m-17.681 9.718c-2.585.115-4.056.672-5.293 2.005-.808.869-1.241 1.74-1.523 3.061-.257 1.203-.339 9.224-.115 11.273.344 3.162 2.051 5.112 5.024 5.74 1.579.334 9.905.377 11.885.062 2.765-.439 4.698-2.365 5.164-5.142.191-1.14.275-6.49.15-9.56-.076-1.868-.148-2.393-.45-3.3-.688-2.066-2.311-3.461-4.574-3.933-1.187-.248-6.8-.36-10.268-.206m10.636 3.947c.455.206.84.765.84 1.218 0 .231-.183.661-.374.878-.757.862-2.155.425-2.313-.723-.062-.455.078-.801.461-1.139.452-.397.871-.468 1.386-.234m-5.731 1.479c2.042.284 3.753 1.614 4.569 3.553.473 1.124.522 2.782.118 3.94-.787 2.252-2.765 3.781-5.069 3.919-1.765.106-3.226-.457-4.49-1.729-.532-.535-.684-.747-1.007-1.4-.49-.993-.625-1.566-.621-2.64.002-.695.037-.96.198-1.501.568-1.912 1.93-3.325 3.78-3.92a5.383 5.383 0 0 1 2.522-.222m-1.495 2.276c-.182.035-.566.18-.854.322-1.317.649-2.104 2.183-1.861 3.624.287 1.7 1.727 2.945 3.401 2.939.983-.003 1.695-.28 2.4-.933.757-.7 1.104-1.505 1.103-2.555-.001-2.21-1.991-3.823-4.189-3.397" fill="#141414" fill-rule="evenodd"/></svg>