<svg width="16" height="16" fill="none" xmlns="http://www.w3.org/2000/svg"><path d="M.781.092a1.246 1.246 0 0 0-.705.647C.014.891.013.908.006 2.065c-.008 1.114-.005 1.181.046 1.35.101.332.34.583.692.724.145.059.179.061 1.283.069.787.006 1.182 0 1.293-.022.366-.071.664-.3.821-.632l.086-.181.007-1.185c.008-1.122.005-1.194-.045-1.361a1.136 1.136 0 0 0-.73-.733C3.273.038.957.037.781.092m5.8.042a1.16 1.16 0 0 0-.802.611L5.693.92v2.534l.089.181c.113.229.302.418.531.53l.18.088h2.59l.203-.1c.312-.154.506-.393.594-.731.059-.228.058-2.246-.001-2.476a1.108 1.108 0 0 0-.878-.81C8.819.102 6.779.101 6.581.134m5.679.055a1.158 1.158 0 0 0-.711.562c-.132.263-.139.349-.13 1.573.008 1.103.009 1.133.068 1.276.124.301.346.522.646.646.144.059.172.061 1.316.069.759.005 1.218-.002 1.307-.021.404-.084.729-.374.855-.764.039-.121.043-.28.037-1.347L15.64.973l-.072-.154a1.214 1.214 0 0 0-.771-.631c-.145-.033-2.395-.033-2.537.001M.881 5.816c-.319.062-.633.316-.782.63l-.086.181-.007 1.191C-.002 8.969 0 9.014.054 9.176c.121.359.397.628.75.729.131.038.307.043 1.373.036 1.221-.008 1.223-.008 1.383-.072.223-.089.513-.379.603-.602l.064-.16V6.624l-.101-.203a1.103 1.103 0 0 0-.79-.607c-.175-.033-2.285-.031-2.455.002m5.984.052a1.123 1.123 0 0 0-.903.762c-.039.121-.043.28-.036 1.347l.007 1.211.092.186c.114.232.305.422.535.53l.173.083h2.614l.175-.086c.29-.142.516-.42.602-.741.055-.208.051-2.264-.005-2.481a1.101 1.101 0 0 0-.941-.814c-.22-.029-2.091-.026-2.313.003m5.335.142c-.279.09-.474.238-.63.478-.17.263-.183.377-.183 1.547 0 .577.011 1.086.027 1.166.085.453.453.822.903.906.081.015.608.026 1.213.026 1.139 0 1.274-.013 1.516-.136.155-.079.372-.292.457-.449.134-.245.149-.401.15-1.496 0-.613-.011-1.064-.029-1.16a1.088 1.088 0 0 0-.605-.805l-.203-.1-1.255-.006c-.962-.004-1.279.003-1.361.029m-5.597 5.512c-.305.074-.652.37-.767.657-.063.154-.063.157-.063 1.394v1.24l.086.181c.096.204.31.435.482.523.251.128.344.136 1.539.136 1.186 0 1.289-.009 1.529-.131.19-.097.371-.287.477-.503l.101-.203.008-1.183c.008-1.287.003-1.343-.145-1.596a1.28 1.28 0 0 0-.511-.445l-.179-.085-1.227-.005c-.687-.003-1.272.006-1.33.02m5.79 0a1.219 1.219 0 0 0-.747.609l-.086.176v2.506l.085.18c.157.331.445.561.793.633.096.02.527.027 1.313.022 1.116-.008 1.175-.011 1.305-.064.306-.126.538-.354.655-.644.062-.153.062-.158.062-1.38v-1.227l-.085-.179a1.122 1.122 0 0 0-.537-.548l-.201-.099-1.229-.005c-.675-.002-1.273.006-1.328.02m-11.46.027c-.351.068-.731.371-.857.683-.062.154-.063.158-.063 1.368 0 1.21.001 1.214.063 1.368.128.317.496.607.867.685.098.02.553.027 1.42.022 1.251-.008 1.28-.01 1.437-.069.341-.128.597-.376.713-.69.055-.148.059-.207.068-1.165.011-1.111-.006-1.347-.117-1.581-.14-.296-.497-.557-.849-.621-.191-.035-2.502-.035-2.682 0" fill="#77AC63" fill-rule="evenodd"/></svg>